/* XPM */
static char * usb_icon_xpm[] = {
"64 64 114 2",
"  	c None",
". 	c #000000",
"+ 	c #0A1015",
"@ 	c #0B1117",
"# 	c #000001",
"$ 	c #14212B",
"% 	c #40698B",
"& 	c #578FBD",
"* 	c #6EB4EE",
"= 	c #76C1FF",
"- 	c #416A8C",
"; 	c #020304",
"> 	c #385C7A",
", 	c #73BCF9",
"' 	c #5992C1",
") 	c #89CAFF",
"! 	c #B9DFFF",
"~ 	c #C2E4FF",
"{ 	c #9FD4FF",
"] 	c #99D1FF",
"^ 	c #FAFDFF",
"/ 	c #FFFFFF",
"( 	c #C7E5FF",
"_ 	c #82C6FF",
": 	c #9ED3FF",
"< 	c #9FD3FF",
"[ 	c #9DD3FF",
"} 	c #9BD2FF",
"| 	c #98D1FF",
"1 	c #F1F9FF",
"2 	c #94CEFF",
"3 	c #81C6FF",
"4 	c #D3EBFF",
"5 	c #FEFFFF",
"6 	c #B2DCFF",
"7 	c #85C8FF",
"8 	c #EDF7FF",
"9 	c #F4FAFF",
"0 	c #CFE9FF",
"a 	c #C9E7FF",
"b 	c #CBE8FF",
"c 	c #CEE9FF",
"d 	c #D0EAFF",
"e 	c #FDFEFF",
"f 	c #A2D5FF",
"g 	c #EAF5FF",
"h 	c #D8EDFF",
"i 	c #7FC5FF",
"j 	c #BBE0FF",
"k 	c #E8F5FF",
"l 	c #7AC3FF",
"m 	c #7EC5FF",
"n 	c #E5F3FF",
"o 	c #DAEEFF",
"p 	c #77C1FF",
"q 	c #B3DCFF",
"r 	c #F2F9FF",
"s 	c #83C7FF",
"t 	c #B5DDFF",
"u 	c #E4F3FF",
"v 	c #DFF0FF",
"w 	c #7BC3FF",
"x 	c #9CD2FF",
"y 	c #F3FAFF",
"z 	c #E9F5FF",
"A 	c #DFF1FF",
"B 	c #7EC4FF",
"C 	c #F6FBFF",
"D 	c #F8FCFF",
"E 	c #87C9FF",
"F 	c #8DCBFF",
"G 	c #EEF7FF",
"H 	c #BAE0FF",
"I 	c #ADDAFF",
"J 	c #C7E6FF",
"K 	c #CBE7FF",
"L 	c #8FCCFF",
"M 	c #C5E5FF",
"N 	c #79C2FF",
"O 	c #CCE8FF",
"P 	c #B4DDFF",
"Q 	c #7CC4FF",
"R 	c #E6F4FF",
"S 	c #FBFDFF",
"T 	c #EFF8FF",
"U 	c #EAF6FF",
"V 	c #F5FBFF",
"W 	c #F5FAFF",
"X 	c #F7FBFF",
"Y 	c #80C6FF",
"Z 	c #AFDBFF",
"` 	c #D6EDFF",
" .	c #DBEFFF",
"..	c #A1D4FF",
"+.	c #BFE2FF",
"@.	c #96CFFF",
"#.	c #ABD9FF",
"$.	c #A6D7FF",
"%.	c #F9FCFF",
"&.	c #BCE1FF",
"*.	c #97D0FF",
"=.	c #8BCAFF",
"-.	c #C4E4FF",
";.	c #88C9FF",
">.	c #A3D5FF",
",.	c #93CEFF",
"'.	c #ACDAFF",
").	c #C3E4FF",
"!.	c #B8DFFF",
"~.	c #CAE7FF",
"{.	c #D2EBFF",
"].	c #D9EEFF",
"^.	c #E1F1FF",
"/.	c #F0F8FF",
"                . . . . . . . . . . . . . . . . . . . . . . . . . . . . . . . . . . . . . . . . . . . . . . . .                 ",
"          . . . . . + @ @ @ @ @ @ @ @ @ @ @ @ @ @ @ @ @ @ @ @ @ @ @ @ @ @ @ @ @ @ @ @ @ @ @ @ @ @ @ @ @ @ + . . . . .           ",
"        # . $ % & * = = = = = = = = = = = = = = = = = = = = = = = = = = = = = = = = = = = = = = = = = = = = * & - $ . #         ",
"      . ; > , = = = = = = = = = = = = = = = = = = = = = = = = = = = = = = = = = = = = = = = = = = = = = = = = = = , > ; .       ",
"    # ; ' = = = = = = = = = = = = = = = = = = = = = = = = = = = = = = = = = = = = = = = = = = = = = = = = = = = = = = ' ; #     ",
"  . . > = = = = = = = = = = = = = = = = = = = = = = = = = = = = = = = = = = = = = = = = = = = = = = = = = = = = = = = = > . .   ",
"  . $ , = = = = = = = = = = = = = = = = = = = = = = = = = = = = = = = = = = = = = = = = = = = = = = = = = = = = = = = = , $ .   ",
"  . - = = = = = = = = = = = = = = = = = = = = = = = = = = = = = = = = = = = = = = = = = = = = = = = = = = = = = = = = = = - .   ",
". . & = = = = = = = = = = = = = = = = = = = = = = = = = = = = = = = = = = = = = = = = = = = = = = = = = = = = = = = = = = & . . ",
". . * = = = = = = = = = = = = = = = = = = = = = = = = = = = = = = = = = = = = = = = = = = = = = = = = = = = = = = = = = = * . . ",
". + = = = = = = = = = = = = = = = = = = = = = = = = = = = = = = = = = = = = = = = = = = = = = = = = = = = = = = = = = = = = + . ",
". @ = = = = = = = = = = = = = = = = = = = = = = = = = = = = = = = = = = = = = = = = = = = = = = = = = = = = = = = = = = = = @ . ",
". @ = = = = = = = = = = = = = = = = = = = = = = = = = = = = = = = = = = = = = = = = = = = = = = = = = = = = = = = = = = = = @ . ",
". @ = = = = = = = = = = = = = = = = = = = = = = = = = = = = = = = = = = = = = = = = = = = = = = = = = = = = = = = = = = = = @ . ",
". @ = = = = = = = = = = = = = = = = = = = = = = = = = = = = = = = = = = = = = = = = = = = = = = = = = = = = = = = = = = = = @ . ",
". @ = = = = = = = = = = = = = = = = = = = = = = = = = = = = = = = = = = = = = = = = = = = = = = = = = = = = = = = = = = = = @ . ",
". @ = = = = = = = = = = = = = = = = = = = = = = = = = = = = = = = = = = = = = = = = = = = = = = = = = = = = = = = = = = = = @ . ",
". @ = = = = = = = = = = = = = = = = = = = = = = = = = = = = = = = = = = = = = = = = = = = = = = = = = = = = = = = = = = = = @ . ",
". @ = = = = = = = = = = = = = = = = = = = = = = = = = = = = = = = = = = = = = = = = = = = = = = = = = = = = = = = = = = = = @ . ",
". @ = = = = = = = = = = = = = = = = = = = = = = = = = = = = = = = = = ) ! ~ { = = = = = = = = = = = = = = = = = = = = = = = @ . ",
". @ = = = = = = = = = = = = = = = = = = = = = = = = = = = = = = = = ] ^ / / / ( = = = = = = = = = = = = = = = = = = = = = = @ . ",
". @ = = = = = = = = = = = = = = = = = = = = = = = = = = _ : < [ } | 1 / / / / / 2 = = = = = = = = = = = = = = = = = = = = = @ . ",
". @ = = = = = = = = = = = = = = = = = = = = = = = = 3 4 5 / / / / / / / / / / / 6 = = = = = = = = = = = = = = = = = = = = = @ . ",
". @ = = = = = = = = = = = = = = = = = = = = = = = 7 8 / 9 0 a b c d e / / / / / f = = = = = = = = = = = = = = = = = = = = = @ . ",
". @ = = = = = = = = = = = = = = = = = = = = = = 3 g / h i = = = = = j / / / / k l = = = = = = = = = = = = = = = = = = = = = @ . ",
". @ = = = = = = = = = = = = = = = = = = = = = m n / o l = = = = = = p q k r 0 s = = = = = = = = = = = = = = = = = = = = = = @ . ",
". @ = = = = = = 3 t d d t 3 = = = = = = = = 3 u / v w = = = = = = = = = = = = = = = = = = = = = = = = = = = = = = = = = = = @ . ",
". @ = = = = = x y / / / / 9 : = = = = = = 7 z / A B = = = = = = = = = = = = = = = = = = = = = = = = = = = = = = = = = = = = @ . ",
". @ = = = = 7 C / / / / / / D E = = = = F G / h w = = = = = = = = = = = = = = = = = = = = = = = = = = = H I l = = = = = = = @ . ",
". @ = = = = J / / / / / / / / K = p L M e / d N = = = = = = = = = = = = = = = = = = = = = = = = = = = = O / r P Q = = = = = @ . ",
". @ = = = = R / / / / / / / / S T e / / 5 9 U U V D W 8 U U U U U U U U U U U U U U U U U U U U U U U U X / / / C j Y = = = @ . ",
". @ = = = = r / / / / / / / / / / / / / / / / / / / / / / / / / / / / / / / / / / / / / / / / / / / / / / / / / / 1 Z = = = @ . ",
". @ = = = = ` / / / / / / / /  .i i i i i i i i L ..+.1 / T @.i i i i i i i i i i i i i i i i i i i i i 0 / / z #.N = = = = @ . ",
". @ = = = = f / / / / / / / / $.= = = = = = = = = = = B ` / %.< = = = = = = = = = = = = = = = = = = = = b v { p = = = = = = @ . ",
". @ = = = = = K / / / / / / 0 = = = = = = = = = = = = = p &.5 S *.= = = = = = = = = = = = = = = = = = = _ = = = = = = = = = @ . ",
". @ = = = = = = I G / / G I p = = = = = = = = = = = = = = = t / V =.= = = = = = = = = = = = = = = = = = = = = = = = = = = = @ . ",
". @ = = = = = = = = 3 3 = = = = = = = = = = = = = = = = = = = -./ 8 ;.= = = = = = >.d d d d d d L = = = = = = = = = = = = = @ . ",
". @ = = = = = = = = = = = = = = = = = = = = = = = = = = = = = p 4 / y ,.= = = = = j / / / / / / [ = = = = = = = = = = = = = @ . ",
". @ = = = = = = = = = = = = = = = = = = = = = = = = = = = = = = N b / ^ '.@.L ;.s )./ / / / / / [ = = = = = = = = = = = = = @ . ",
". @ = = = = = = = = = = = = = = = = = = = = = = = = = = = = = = = = !.5 / / / / / / / / / / / / [ = = = = = = = = = = = = = @ . ",
". @ = = = = = = = = = = = = = = = = = = = = = = = = = = = = = = = = = : ~.{.].^.n /./ / / / / / [ = = = = = = = = = = = = = @ . ",
". @ = = = = = = = = = = = = = = = = = = = = = = = = = = = = = = = = = = = = = = = j / / / / / / [ = = = = = = = = = = = = = @ . ",
". @ = = = = = = = = = = = = = = = = = = = = = = = = = = = = = = = = = = = = = = = j / / / / / / [ = = = = = = = = = = = = = @ . ",
". @ = = = = = = = = = = = = = = = = = = = = = = = = = = = = = = = = = = = = = = = i E E E E E E w = = = = = = = = = = = = = @ . ",
". @ = = = = = = = = = = = = = = = = = = = = = = = = = = = = = = = = = = = = = = = = = = = = = = = = = = = = = = = = = = = = @ . ",
". @ = = = = = = = = = = = = = = = = = = = = = = = = = = = = = = = = = = = = = = = = = = = = = = = = = = = = = = = = = = = = @ . ",
". @ = = = = = = = = = = = = = = = = = = = = = = = = = = = = = = = = = = = = = = = = = = = = = = = = = = = = = = = = = = = = @ . ",
". @ = = = = = = = = = = = = = = = = = = = = = = = = = = = = = = = = = = = = = = = = = = = = = = = = = = = = = = = = = = = = @ . ",
". @ = = = = = = = = = = = = = = = = = = = = = = = = = = = = = = = = = = = = = = = = = = = = = = = = = = = = = = = = = = = = @ . ",
". @ = = = = = = = = = = = = = = = = = = = = = = = = = = = = = = = = = = = = = = = = = = = = = = = = = = = = = = = = = = = = @ . ",
". @ = = = = = = = = = = = = = = = = = = = = = = = = = = = = = = = = = = = = = = = = = = = = = = = = = = = = = = = = = = = = @ . ",
". @ = = = = = = = = = = = = = = = = = = = = = = = = = = = = = = = = = = = = = = = = = = = = = = = = = = = = = = = = = = = = @ . ",
". @ = = = = = = = = = = = = = = = = = = = = = = = = = = = = = = = = = = = = = = = = = = = = = = = = = = = = = = = = = = = = @ . ",
". + = = = = = = = = = = = = = = = = = = = = = = = = = = = = = = = = = = = = = = = = = = = = = = = = = = = = = = = = = = = = + . ",
". . * = = = = = = = = = = = = = = = = = = = = = = = = = = = = = = = = = = = = = = = = = = = = = = = = = = = = = = = = = = * . . ",
". . & = = = = = = = = = = = = = = = = = = = = = = = = = = = = = = = = = = = = = = = = = = = = = = = = = = = = = = = = = = & . . ",
"  . - = = = = = = = = = = = = = = = = = = = = = = = = = = = = = = = = = = = = = = = = = = = = = = = = = = = = = = = = = = - .   ",
"  . $ , = = = = = = = = = = = = = = = = = = = = = = = = = = = = = = = = = = = = = = = = = = = = = = = = = = = = = = = = , $ .   ",
"  . . > = = = = = = = = = = = = = = = = = = = = = = = = = = = = = = = = = = = = = = = = = = = = = = = = = = = = = = = = > . .   ",
"    # ; ' = = = = = = = = = = = = = = = = = = = = = = = = = = = = = = = = = = = = = = = = = = = = = = = = = = = = = = ' ; #     ",
"      . ; > , = = = = = = = = = = = = = = = = = = = = = = = = = = = = = = = = = = = = = = = = = = = = = = = = = = , > ; .       ",
"        # . $ % & * = = = = = = = = = = = = = = = = = = = = = = = = = = = = = = = = = = = = = = = = = = = = * & - $ . #         ",
"          . . . . . + @ @ @ @ @ @ @ @ @ @ @ @ @ @ @ @ @ @ @ @ @ @ @ @ @ @ @ @ @ @ @ @ @ @ @ @ @ @ @ @ @ @ + . . . . .           ",
"                . . . . . . . . . . . . . . . . . . . . . . . . . . . . . . . . . . . . . . . . . . . . . . . .                 "};
