/* XPM */
static char *usbview_icon[] = {
/* columns rows colors chars-per-pixel */
"64 64 110 2 ",
"   c black",
".  c #020406",
"X  c #030506",
"o  c #070707",
"O  c #070708",
"+  c #05090B",
"@  c #080809",
"#  c #070D10",
"$  c gray8",
"%  c #161616",
"&  c gray12",
"*  c #162833",
"=  c #162934",
"-  c #172B35",
";  c #172B36",
":  c #182C37",
">  c #182D38",
",  c #202020",
"<  c #232323",
"1  c #393939",
"2  c gray23",
"3  c #305970",
"4  c #335E76",
"5  c #346179",
"6  c #37657F",
"7  c gray42",
"8  c #6C6C6C",
"9  c #6F6F6F",
"0  c #376780",
"q  c #386781",
"w  c #386882",
"e  c #427B9A",
"r  c #4D8FB3",
"t  c #4F92B7",
"y  c #4F93B8",
"u  c #5094BA",
"i  c #539AC0",
"p  c #549BC2",
"a  c #549CC3",
"s  c #5FAFDB",
"d  c #5FB0DC",
"f  c #60B2DE",
"g  c #66BDED",
"h  c #67BFEF",
"j  c #68BFEF",
"k  c #69C0EF",
"l  c #6CC1EF",
"z  c #6CC1F0",
"x  c #6FC2F0",
"c  c #70C3F0",
"v  c #71C3F0",
"b  c #73C4F0",
"n  c #76C6F1",
"m  c #78C6F1",
"M  c #7BC8F1",
"N  c #7CC8F1",
"B  c #7FC9F2",
"V  c #8E8E8E",
"C  c gray57",
"Z  c gray61",
"A  c gray62",
"S  c gray63",
"D  c gray65",
"F  c #BBBBBB",
"G  c gray74",
"H  c #81CAF2",
"J  c #83CBF2",
"K  c #87CCF2",
"L  c #8DCFF3",
"P  c #8ECFF3",
"I  c #8FD0F3",
"U  c #90D0F3",
"Y  c #93D2F4",
"T  c #95D3F4",
"R  c #97D3F4",
"E  c #98D4F4",
"W  c #9DD6F5",
"Q  c #A3D8F5",
"!  c #A4D9F5",
"~  c #AADBF6",
"^  c #ABDCF6",
"/  c #ADDCF6",
"(  c #AFDDF7",
")  c #B2DFF7",
"_  c #B3DFF7",
"`  c #B4E0F7",
"'  c #BCE3F8",
"]  c #BDE3F8",
"[  c gray77",
"{  c #C8C8C8",
"}  c #C5E6F9",
"|  c #CCE9FA",
" . c #D1EBFA",
".. c #D2ECFA",
"X. c #D6EEFB",
"o. c #DAEFFB",
"O. c #DCF0FB",
"+. c #DEF1FC",
"@. c #E1F2FC",
"#. c #E4F3FC",
"$. c #E6F4FC",
"%. c #EAF6FD",
"&. c #ECF7FD",
"*. c #EFF8FD",
"=. c #F2FAFE",
"-. c #F5FBFE",
";. c #F8F8F8",
":. c #FBFBFB",
">. c #FBFDFF",
",. c white",
/* pixels */
",.,.,.,.,.,.,.,.;.F 7 1 & o                                                                         o & 1 7 F ;.,.,.,.,.,.,.,.,.",
",.,.,.,.,.,.;.V $         X # # # # # # # # # # # # # # # # # # # # # # # # # # # # # # # # # # # # X         $ V ;.,.,.,.,.,.,.",
",.,.,.,.,.[ &     : w a d h h h h h h h h h h h h h h h h h h h h h h h h h h h h h h h h h h h h h h d p 0 ;     , [ ,.,.,.,.,.",
",.,.,.,.A o   ; u h h h h h h h h h h h h h h h h h h h h h h h h h h h h h h h h h h h h h h h h h h h h h h t :   @ S ,.,.,.,.",
",.,.,.S     3 h h h h h h h h h h h h h h h h h h h h h h h h h h h h h h h h h h h h h h h h h h h h h h h h h h 0     A ,.,.,.",
",.,.[ o   e h h h h h h h h h h h h h h h h h h h h h h h h h h h h h h h h h h h h h h h h h h h h h h h h h h h h e   o [ ,.,.",
",.;.,   5 h h h h h h h h h h h h h h h h h h h h h h h h h h h h h h h h h h h h h h h h h h h h h h h h h h h h h h 4   , ;.,.",
",.V   : h k h h h h h h h h h h h h h h h h h h h h h h h h h h h h h h h h h h h h h h h h h h h h h h h h h h h h j j ;   C ,.",
";.$   y h h h h h h h h h h h h h h h h h h h h h h h h h h h h h h h h h h h h h h h h h h h h h h h h h h h h h h h h t   $ ;.",
"F   ; h h h h h h h h h h h h h h h h h h h h h h h h h h h h h h h h h h h h h h h h h h h h h h h h h h h h h h h h h h ;   G ",
"8   q h h h h h h h h h h h h h h h h h h h h h h h h h h h h h h h h h h h h h h h h h h h h h h h h h h h h h h h h h j w   8 ",
"1   p h h h h h h h h h h h h h h h h h h h h h h h h h h h h h h h h h h h h h h h h h h h h h h h h h h h h h h h h h j a   1 ",
"&   f h h h h h h h h h h h h h h h h h h h h h h h h h h h h h h h h h h h h h h h h h h h h h h h h h h h h h h h h h h d   , ",
"o X h h h h h h h h h h h h h h h h h h h h h h h h h h h h h h h h h h h h h h h h h h h h h h h h h h h h h h h h h h h h X o ",
"  + h h h h h h h h h h h h h h h h h h h h h h h h h h h h h h h h h h h h h h h h h h h h h h h h h h h h h h h h h h h h +   ",
"  + h h h h h h h h h h h h h h h h h h h h h h h h h h h h h h h h h h h h h h h h h h h h h h h h h h h h h h h h h h h h +   ",
"  + h h h h h h h h h h h h h h h h h h h h h h h h h h h h h h h h h h h h h h h h h h h h h h h h h h h h h h h h h h h h +   ",
"  + h h h h h h h h h h h h h h h h h h h h h h h h h h h h h h h h h h h h h h h h h h h h h h h h h h h h h h h h h h h h +   ",
"  + h h h h h h h h h h h h h h h h h h h h h h h h h h h h h h h h h h h j n h h h h h h h h h h h h h h h h h h h h h h h +   ",
"  + h h h h h h h h h h h h h h h h h h h h h h h h h j h h h h h h h j W =.,.=.T h h h h h h h h h h h h h h h h h h h h h +   ",
"  + h h h h h h h h h h h h h h h h h h h h h h h h h j h h m m m M M P ,.,.,.,.>.N j j h h h h h h h h h h h h h h h h h h +   ",
"  + h h h h h h h h h h h h h h h h h h h h h h h h h c ' -.,.,.,.,.,.,.,.,.,.,.,.~ h j h h h h h h h h h h h h h h h h h h +   ",
"  + h h h h h h h h h h h h h h h h h h h h h h h h H &.,.,.=.%.&.%.%.=.,.,.,.,.,.! h h h h h h h h h h h h h h h h h h h h +   ",
"  + h h h h h h h h h h h h h h h h h h h h h h j N &.,.O.H h h h h h n -.,.,.,.=.c h h h h h h h h h h h h h h h h h h h h +   ",
"  + h h h h h h h h h h h h h h h h h h h h h h n %.,.+.l j j h h h h h H X.&. .N z h h h h h h h h h h h h h h h h h h h h +   ",
"  + h h h h h h h k l h h h h h h h h h h h h b $.,.#.c h h h h h h h h j j h j h h h h h h h h h h h h h h h h h h h h h h +   ",
"  + h h h h h T o.,.,.%.! k h h h h h h j h c @.,.%.n j h h h h h h h h h h h h h h h h h h h h h h h h h h h h h h h h h h +   ",
"  + h h h h ) ,.,.,.,.,.,. .k j h h h h k l o.,.&.m h h h h h h h h h h h h h h h h h h h h h h h h h h j m n h h h h h h h +   ",
"  + h h h I ,.,.,.,.,.,.,.,.) j h h h h k X.,.=.N h h h h h h h h h h h h h h h h h h h h h h h h h h h h E -.^ k h h h h h +   ",
"  + h h h  .,.,.,.,.,.,.,.,.-.k h h k K o.,.=.H h h h h h h h h h h h h h h h h h h h h h h h h h h h h h E ,.,.$.Y h z h h +   ",
"  + h h h *.,.,.,.,.,.,.,.,.,.,.,.,.,.,.,.,.,.,.,.,.,.,.,.,.,.,.,.,.,.,.,.,.,.,.,.,.,.,.,.,.,.,.,.,.,.,.,.,.,.,.,.,.X.N h h +   ",
"  + h h h *.,.,.,.,.,.,.,.,.,.,.,.,.,.,.,.,.,.,.,.,.,.,.,.,.,.,.,.,.,.,.,.,.,.,.,.,.,.,.,.,.,.,.,.,.,.,.,.,.,.,.,.,.O.H h h +   ",
"  + h h h ..,.,.,.,.,.,.,.,.-.k h h h h h h h h h h c Q -.,.| k h h h h h h h h h h h h h h h h h h h h j E ,.,.%.T h h h h +   ",
"  + h h h U ,.,.,.,.,.,.,.,.` h h h h h h h h h h h h h P -.,.} j h h h h h h h h h h h h h h h h h h h k E >.( k j h h h h +   ",
"  + h h h h ` ,.,.,.,.,.,...k h h h h h h h h h h h h h h P >.,.' j j h h h h h h h h h h h h h h h h h h m n h j h h h h h +   ",
"  + h h h h j T +.,.,.&.! k h h h h h h h h h h h h h h h h T >.,.) j h h h h h h h h h h h h h h h h h h h h h h h h h h h +   ",
"  + h h h h h h h k x k h h h h h h h h h h h h h h h h h h h W ,.,.( h h h h h h h h h h h h h h h h h h h h h h h h h h h +   ",
"  + h h h h h h h h h h h h h h h h h h h h h h h h h h h h h h Q ,.,.! h h h h h h h *.-.-.-.-.-.n h h h h h h h h h h h h +   ",
"  + h h h h h h h h h h h h h h h h h h h h h h h h h h h h h h h ~ ,.,.( k h h h h k -.,.,.,.,.,.M h h h h h h h h h h h h +   ",
"  + h h h h h h h h h h h h h h h h h h h h h h h h h h h h h h h h ( ,.,.,.&.%.%.%.%.,.,.,.,.,.,.m h h h h h h h h h h h h +   ",
"  + h h h h h h h h h h h h h h h h h h h h h h h h h h h h h h h h h P o.,.,.,.,.,.,.,.,.,.,.,.,.M h h h h h h h h h h h h +   ",
"  + h h h h h h h h h h h h h h h h h h h h h h h h h h h h h h h h h h h k M M M M M >.,.,.,.,.,.m h h h h h h h h h h h h +   ",
"  + h h h h h h h h h h h h h h h h h h h h h h h h h h h h h h h h h h h h h h h h h -.,.,.,.,.,.m h h h h h h h h h h h h +   ",
"  + h h h h h h h h h h h h h h h h h h h h h h h h h h h h h h h h h h h h h h h k k H K K H K K k h h h h h h h h h h h h +   ",
"  + h h h h h h h h h h h h h h h h h h h h h h h h h h h h h h h h h h h h h h h h h h h h h h k h h h h h h h h h h h h h +   ",
"  + h h h h h h h h h h h h h h h h h h h h h h h h h h h h h h h h h h h h h h h h h h h h h h k h h h h h h h h h h h h h +   ",
"  + h h h h h h h h h h h h h h h h h h h h h h h h h h h h h h h h h h h h h h h h h h h h h h h h h h h h h h h h h h h h +   ",
"  + h h h h h h h h h h h h h h h h h h h h h h h h h h h h h h h h h h h h h h h h h h h h h h h h h h h h h h h h h h h h +   ",
"  + h h h h h h h h h h h h h h h h h h h h h h h h h h h h h h h h h h h h h h h h h h h h h h h h h h h h h h h h h h h h +   ",
"  + h h h h h h h h h h h h h h h h h h h h h h h h h h h h h h h h h h h h h h h h h h h h h h h h h h h h h h h h h h h h +   ",
"o X h h h h h h h h h h h h h h h h h h h h h h h h h h h h h h h h h h h h h h h h h h h h h h h h h h h h h h h h h h h h X o ",
"&   d h h h h h h h h h h h h h h h h h h h h h h h h h h h h h h h h h h h h h h h h h h h h h h h h h h h h h h h h h h s   , ",
"1   p h h h h h h h h h h h h h h h h h h h h h h h h h h h h h h h h h h h h h h h h h h h h h h h h h h h h h h h h h h i   1 ",
"8   0 h h h h h h h h h h h h h h h h h h h h h h h h h h h h h h h h h h h h h h h h h h h h h h h h h h h h h h h h h h 6   8 ",
"F   : h h h h h h h h h h h h h h h h h h h h h h h h h h h h h h h h h h h h h h h h h h h h h h h h h h h h h h h h h l ;   G ",
";.$   t h h h h h h h h h h h h h h h h h h h h h h h h h h h h h h h h h h h h h h h h h h h h h h h h h h h h h h h h t   $ ,.",
",.V   ; h h h h h h h h h h h h h h h h h h h h h h h h h h h h h h h h h h h h h h h h h h h h h h h h h h h h h h k h *   C ,.",
",.;.,   4 h h h h h h h h h h h h h h h h h h h h h h h h h h h h h h h h h h h h h h h h h h h h h h h h h h h h h k 4   , ;.,.",
",.,.[ @   e j h h h h h h h h h h h h h h h h h h h h h h h h h h h h h h h h h h h h h h h h h h h h h h h h h h h w   O { ,.,.",
",.,.,.S     3 h h h h h h h h h h h h h h h h h h h h h h h h h h h h h h h h h h h h h h h h h h h h h h h h k h 6 + X A ,.,.,.",
",.,.,.,.D @   ; r h h k h h h h h h h h h h h h h h h h h h h h h h h h h h h h h h h h h h h h h h h h z h h u >   o A ,.,.,.,.",
",.,.,.,.,.[ ,     ; 6 p s h h h h h h h h h h h h h h h h h h h h h h h h h h h h h h h h h h h h h h s a w *     , [ ,.,.,.,.,.",
",.,.,.,.,.,.;.C $         X # # # # # # # # # # # # # # # # # # # # # # # # # # # # # # # # # # # # X         $ C ;.,.,.,.,.,.,.",
",.,.,.,.,.,.,.,.;.G 8 1 & o                                                                         o , 2 8 G ;.,.,.,.,.,.,.,.,."
};
