<?xml version="1.0" encoding="UTF-8" standalone="no"?>
<!-- Created with Inkscape (http://www.inkscape.org/) -->

<svg
   xmlns:dc="http://purl.org/dc/elements/1.1/"
   xmlns:cc="http://creativecommons.org/ns#"
   xmlns:rdf="http://www.w3.org/1999/02/22-rdf-syntax-ns#"
   xmlns:svg="http://www.w3.org/2000/svg"
   xmlns="http://www.w3.org/2000/svg"
   xmlns:sodipodi="http://sodipodi.sourceforge.net/DTD/sodipodi-0.dtd"
   xmlns:inkscape="http://www.inkscape.org/namespaces/inkscape"
   width="64px"
   height="64px"
   id="svg2985"
   version="1.1"
   inkscape:version="0.48.5 r10040"
   sodipodi:docname="New document 2">
  <defs
     id="defs2987" />
  <sodipodi:namedview
     id="base"
     pagecolor="#ffffff"
     bordercolor="#666666"
     borderopacity="1.0"
     inkscape:pageopacity="0.0"
     inkscape:pageshadow="2"
     inkscape:zoom="7.1276363"
     inkscape:cx="8.9147202"
     inkscape:cy="26.700074"
     inkscape:current-layer="layer1"
     showgrid="true"
     inkscape:document-units="px"
     inkscape:grid-bbox="true"
     inkscape:snap-global="false"
     inkscape:window-width="1600"
     inkscape:window-height="834"
     inkscape:window-x="0"
     inkscape:window-y="27"
     inkscape:window-maximized="1" />
  <metadata
     id="metadata2990">
    <rdf:RDF>
      <cc:Work
         rdf:about="">
        <dc:format>image/svg+xml</dc:format>
        <dc:type
           rdf:resource="http://purl.org/dc/dcmitype/StillImage" />
        <dc:title></dc:title>
      </cc:Work>
    </rdf:RDF>
  </metadata>
  <g
     id="layer1"
     inkscape:label="Layer 1"
     inkscape:groupmode="layer">
    <rect
       style="fill:#67bfef;fill-opacity:1;fill-rule:evenodd;stroke:#000000;stroke-width:1.95700002;stroke-linecap:butt;stroke-linejoin:round;stroke-miterlimit:4;stroke-opacity:1;stroke-dasharray:none"
       id="rect3111"
       width="62.055035"
       height="62.055035"
       x="1.1009438"
       y="1.124616"
       ry="12.767206" />
    <path
       id="path1334"
       d="m 59.757253,31.012666 -6.076826,-3.509323 0,2.50338 -31.060353,0 6.047801,-6.389553 c 0.514692,-0.412553 1.188114,-0.701962 1.880845,-0.717993 2.802382,0 4.466566,-7.28e-4 5.079145,-0.0019 0.415225,1.183011 1.530592,2.036904 2.856546,2.036904 1.677422,0 3.038717,-1.361174 3.038717,-3.039203 0,-1.678759 -1.361174,-3.039447 -3.038717,-3.039447 -1.325954,0 -2.441321,0.853407 -2.856546,2.035447 l -5.019635,-8.51e-4 c -1.360447,0 -2.785988,0.746412 -3.693316,1.621436 0.02478,-0.02599 0.05052,-0.05368 -0.0014,4.86e-4 -0.01919,0.02162 -6.416513,6.778424 -6.416513,6.778424 -0.513597,0.411947 -1.186655,0.699533 -1.878901,0.716051 l -3.513696,0 c -0.465749,-2.321211 -2.515525,-4.070043 -4.974335,-4.070043 -2.8033537,0 -5.0757426,2.272388 -5.0757426,5.074892 0,2.803354 2.2723889,5.075864 5.0757426,5.075864 2.459296,0 4.509072,-1.750289 4.97482,-4.073443 l 3.452123,0 c 0.0089,0 0.01773,4.85e-4 0.02672,0 l 7.635474,0 c 0.69091,0.01761 1.363117,0.30556 1.87623,0.717993 0,0 6.395868,6.756321 6.415664,6.778182 0.05125,0.05429 0.02575,0.02599 4.85e-4,4.85e-4 0.907329,0.874902 2.333477,1.620827 3.694166,1.620827 l 4.837463,-0.0011 0,2.03751 6.078407,0 0,-6.077797 -6.078407,0 0,2.034839 c 0,0 -1.274098,-0.0023 -4.896729,-0.0023 -0.692854,-0.01591 -1.367005,-0.304953 -1.881452,-0.717507 l -6.049142,-6.390725 23.464591,0 0,2.507388 6.076827,-3.508837 z"
       inkscape:connector-curvature="0"
       style="fill:#ffffff;fill-opacity:1" />
  </g>
</svg>
